{"title":"Formula 1 2008 Round 6 Monaco Race","uid":9659886,"size":2189970813,"categoryP":"video","categoryS":"tv_shows","magnet":"?xt=urn:btih:09ed87c499da0dafa6c2b0e2389e944f4781eab8&amp;dn=Formula+1+2008+Round+6+Monaco+Race&amp;tr=udp%3A%2F%2Ftracker.openbittorrent.com%3A80&amp;tr=udp%3A%2F%2Fopen.demonii.com%3A1337&amp;tr=udp%3A%2F%2Ftracker.coppersurfer.tk%3A6969&amp;tr=udp%3A%2F%2Fexodus.desync.com%3A6969","seeders":2,"leechers":0,"uploader":"totocon","files":1,"time":1393255795,"description":"ITV broadcast\n\nFormat                                   : Matroska\nFormat version                           : Version 4 / Version 2\nFile size                                : 2.04 GiB\nDuration                                 : 3h 22mn\nOverall bit rate mode                    : Variable\nOverall bit rate                         : 1 439 Kbps\nEncoded date                             : UTC 2014-02-22 20:51:09\nWriting application                      : mkvmerge v6.3.0 ('You can't stop me!') built on Jun 27 2013 22:06:07\nWriting library                          : libebml v1.3.0 + libmatroska v1.4.0\n\nVideo\nID                                       : 1\nFormat                                   : MPEG-4 Visual\nFormat profile                           : Advanced Simple@L5\nFormat settings, BVOP                    : Yes\nFormat settings, QPel                    : No\nFormat settings, GMC                     : No warppoints\nFormat settings, Matrix                  : Default (H.263)\nCodec ID                                 : V_MS/VFW/FOURCC / XVID\nCodec ID/Hint                            : XviD\nDuration                                 : 3h 22mn\nBit rate                                 : 1 290 Kbps\nWidth                                    : 672 pixels\nHeight                                   : 384 pixels\nDisplay aspect ratio                     : 16:9\nFrame rate mode                          : Constant\nFrame rate                               : 25.000 fps\nColor space                              : YUV\nChroma subsampling                       : 4:2:0\nBit depth                                : 8 bits\nScan type                                : Progressive\nCompression mode                         : Lossy\nBits/(Pixel*Frame)                       : 0.200\nStream size                              : 1.83 GiB (90%)\nWriting library                          : XviD 1.1.2 (UTC 2006-11-01)\nDefault                                  : Yes\nForced                                   : No\n\nAudio\nID                                       : 2\nFormat                                   : MPEG Audio\nFormat version                           : Version 1\nFormat profile                           : Layer 3\nMode                                     : Joint stereo\nCodec ID                                 : A_MPEG/L3\nCodec ID/Hint                            : MP3\nDuration                                 : 3h 22mn\nBit rate mode                            : Variable\nBit rate                                 : 121 Kbps\nNominal bit rate                         : 128 Kbps\nChannel(s)                               : 2 channels\nSampling rate                            : 48.0 KHz\nCompression mode                         : Lossy\nStream size                              : 175 MiB (8%)\nWriting library                          : LAME3.90.\nEncoding settings                        : -m j -V 4 -q 2 -lowpass 17.6 --abr 128\nDefault                                  : Yes\nForced                                   : No\n\n","torrent":{"xt":"urn:btih:09ed87c499da0dafa6c2b0e2389e944f4781eab8","amp;dn":"Formula+1+2008+Round+6+Monaco+Race","amp;tr":["udp%3A%2F%2Ftracker.openbittorrent.com%3A80","udp%3A%2F%2Fopen.demonii.com%3A1337","udp%3A%2F%2Ftracker.coppersurfer.tk%3A6969","udp%3A%2F%2Fexodus.desync.com%3A6969"],"infoHash":"09ed87c499da0dafa6c2b0e2389e944f4781eab8","infoHashBuffer":{"type":"Buffer","data":[9,237,135,196,153,218,13,175,166,194,176,226,56,158,148,79,71,129,234,184]},"announce":[],"urlList":[]}}